# xmcd CD database file
#
# Track frame offsets:
#	150
#	20787
#	34780
#	54525
#	70847
#	89545
#	106655
#	125980
#	143210
#	152572
#	169192
#	180292
#	190815
#	204720
#
# Disc length: 2976 seconds
#
# Revision: 2
# Processed by: cddbd v1.4b41PL1 Copyright (c) Steve Scherf et al.
# Submitted via: Feurio! 1.50.2ß - http://www.feurio.com
#
DISCID=c40b9e0e
DTITLE=raabe - wintergarten
DYEAR=1900
DGENRE=
TTITLE0=Track: 1
TTITLE1=Track: 2
TTITLE2=Track: 3
TTITLE3=Track: 4
TTITLE4=Track: 5
TTITLE5=Track: 6
TTITLE6=Track: 7
TTITLE7=Track: 8
TTITLE8=Track: 9
TTITLE9=Track: 10
TTITLE10=Track: 11
TTITLE11=Track: 12
TTITLE12=Track: 13
TTITLE13=Track: 14
EXTD=
EXTT0=
EXTT1=
EXTT2=
EXTT3=
EXTT4=
EXTT5=
EXTT6=
EXTT7=
EXTT8=
EXTT9=
EXTT10=
EXTT11=
EXTT12=
EXTT13=
PLAYORDER=
